<svg xmlns="http://www.w3.org/2000/svg" width="248.458" height="84.41"><defs><style>.a{fill:#fff;fill-rule:evenodd}</style></defs><path class="a" d="M64.433 39.103H46.844l26.224-26.231-28.189 24.721v-18.04a19.551 19.551 0 1119.555 19.55zM19.546 44.978h17.6L10.903 71.211l28.193-24.724v18.039a19.548 19.548 0 11-19.549-19.549zM44.878 83.248h8.226V67.999h11.458v-7.668H53.108v-6.829h14.8v-8.454H52.677a7.834 7.834 0 00-7.44 5.483 11.5 11.5 0 00-.35 3.458zM165.575 53.404v29.748l8.189.008-.007-29.756h8.752V49.46a4.428 4.428 0 00-4.409-4.411h-16.871a4.431 4.431 0 00-4.411 4.411v3.495l.01.45zM226.694 46.275a11.1 11.1 0 00-6.894 10.41c.133 3.994 2.756 7.077 6.237 8.764 2.742 1.32 6.049 1.93 8.972 2.768 1.639.468 4.976 1.469 4.5 3.767-.431 2.016-2.079 2.732-3.84 2.732h-14.533v8.407h12.994a15.749 15.749 0 007.13-1.484 11.959 11.959 0 006.582-6.993 10.913 10.913 0 00.472-5.4c-1.357-8.29-10.107-9.277-16.666-11.12-1.039-.292-2.835-.648-2.906-1.946-.1-1.929 2.772-2.686 4.131-2.693l14.115-.055v-8.319h-10.823c-3.135-.001-6.554-.103-9.471 1.162zM196.456 45.049a7.822 7.822 0 00-7.516 7.395h-.007v23.663h.022a7.827 7.827 0 007.678 7.138h15.217V74.79h-14.632v-6.779h12.532v-7.735h-12.532v-6.777h14.632v-8.454zM97.394 73.702a9.2 9.2 0 01-13.462-.029c-1.78-1.956-2.66-4.828-2.66-8.59 0-3.86.854-6.739 2.583-8.653a9.547 9.547 0 0113.6-.027c1.7 1.9 2.553 4.748 2.553 8.574.006 3.868-.867 6.785-2.614 8.725zm7.051-23.481q-5.111-5.237-13.633-5.244a21.6 21.6 0 00-8.342 1.508 15.071 15.071 0 00-4.992 3.443 18.011 18.011 0 00-3.594 5.223 24.175 24.175 0 00-1.751 9.79q0 9.1 5.071 14.283t13.717 5.186q8.5 0 13.571-5.213t5.074-14.445q.001-9.304-5.121-14.534zM116.591 53.561v29.688h8.28V58.925l13.86 21.922.016-.005a5.113 5.113 0 004.32 2.407h.981a5.116 5.116 0 005.1-5.091V73.59l-.01-28.54h-8.273v25.173l-13.951-22.43a5.1 5.1 0 00-4.478-2.689h-.751a5.107 5.107 0 00-5.088 5.091zM19.546 39.103H37.51L12.823 10.96l26.276 26.275V19.552a19.548 19.548 0 10-19.549 19.55z"/></svg>